<mxfile host="app.diagrams.net" agent="Mozilla/5.0 (Windows NT 10.0; Win64; x64) AppleWebKit/537.36 (KHTML, like Gecko) Chrome/138.0.0.0 Safari/537.36" version="28.0.7">
  <diagram name="Seite-1" id="HmoCAXHfCFNNwk7OW5tt">
    <mxGraphModel dx="2066" dy="1103" grid="1" gridSize="10" guides="1" tooltips="1" connect="1" arrows="1" fold="1" page="1" pageScale="1" pageWidth="827" pageHeight="1169" math="0" shadow="0">
      <root>
        <mxCell id="0" />
        <mxCell id="1" parent="0" />
        <mxCell id="Nv6lVPslLvDHbNFfVloQ-3" style="edgeStyle=orthogonalEdgeStyle;rounded=0;orthogonalLoop=1;jettySize=auto;html=1;exitX=0.5;exitY=1;exitDx=0;exitDy=0;" edge="1" parent="1" source="Nv6lVPslLvDHbNFfVloQ-1" target="Nv6lVPslLvDHbNFfVloQ-2">
          <mxGeometry relative="1" as="geometry" />
        </mxCell>
        <mxCell id="Nv6lVPslLvDHbNFfVloQ-4" value="bkbs" style="edgeLabel;html=1;align=center;verticalAlign=middle;resizable=0;points=[];" vertex="1" connectable="0" parent="Nv6lVPslLvDHbNFfVloQ-3">
          <mxGeometry x="-0.1538" y="2" relative="1" as="geometry">
            <mxPoint as="offset" />
          </mxGeometry>
        </mxCell>
        <mxCell id="Nv6lVPslLvDHbNFfVloQ-1" value="query_bkb_parquet()" style="rounded=1;whiteSpace=wrap;html=1;" vertex="1" parent="1">
          <mxGeometry x="100" y="100" width="130" height="30" as="geometry" />
        </mxCell>
        <mxCell id="Nv6lVPslLvDHbNFfVloQ-2" value="pipe_BKB_data()" style="rounded=1;whiteSpace=wrap;html=1;" vertex="1" parent="1">
          <mxGeometry x="110" y="260" width="110" height="20" as="geometry" />
        </mxCell>
      </root>
    </mxGraphModel>
  </diagram>
</mxfile>
